<svg xmlns="http://www.w3.org/2000/svg" viewBox="0 0 24 24" aria-hidden="true" role="img">
  <path d="M12 2.163c3.204 0 3.584.012 4.85.07 1.366.062 2.633.331 3.608 1.306.975.975 1.244 2.242 1.306 3.608.058 1.266.07 1.646.07 4.85s-.012 3.584-.07 4.85c-.062 1.366-.331 2.633-1.306 3.608-.975.975-2.242 1.244-3.608 1.306-1.266.058-1.646.07-4.85.07s-3.584-.012-4.85-.07c-1.366-.062-2.633-.331-3.608-1.306-.975-.975-1.244-2.242-1.306-3.608-.058-1.266-.07-1.646-.07-4.85s.012-3.584.07-4.85c.062-1.366.331-2.633 1.306-3.608.975-.975 2.242-1.244 3.608-1.306 1.266-.058 1.646-.07 4.85-.07M12 0C8.741 0 8.332.014 7.052.072 5.773.13 4.564.364 3.636 1.293 2.707 2.221 2.473 3.43 2.415 4.71 2.357 5.99 2.343 6.399 2.343 9.658c0 3.259.014 3.668.072 4.948.058 1.28.292 2.489 1.22 3.418.928.928 2.137 1.162 3.417 1.22 1.28.058 1.689.072 4.948.072s3.668-.014 4.948-.072c1.28-.058 2.489-.292 3.418-1.22.928-.928 1.162-2.137 1.22-3.417.058-1.28.072-1.689.072-4.948s-.014-3.668-.072-4.948c-.058-1.28-.292-2.489-1.22-3.418-.928-.928-2.137-1.162-3.417-1.22-1.28-.058-1.689-.072-4.948-.072zm0 5.838a6.162 6.162 0 100 12.324 6.162 6.162 0 000-12.324zm0 10.162a3.999 3.999 0 110-7.998 3.999 3.999 0 010 7.998zm6.406-11.845a1.44 1.44 0 11-2.882 0 1.44 1.44 0 012.882 0z" fill="currentColor"></path>
</svg>
